<svg width="32" height="32" viewBox="0 0 32 32" fill="none" xmlns="http://www.w3.org/2000/svg">
<path fill-rule="evenodd" clip-rule="evenodd" d="M25.0607 25.0607C24.4749 25.6464 23.5251 25.6464 22.9394 25.0607L6.06068 8.18198C5.47489 7.59619 5.47489 6.64645 6.06068 6.06066V6.06066C6.64646 5.47487 7.59621 5.47487 8.182 6.06066L25.0607 22.9393C25.6465 23.5251 25.6465 24.4749 25.0607 25.0607V25.0607Z" fill="white"/>
<path fill-rule="evenodd" clip-rule="evenodd" d="M6.06068 25.0607C5.47489 24.4749 5.47489 23.5251 6.06068 22.9394L22.9394 6.06068C23.5251 5.47489 24.4749 5.47489 25.0607 6.06068V6.06068C25.6465 6.64646 25.6465 7.59621 25.0607 8.182L8.182 25.0607C7.59621 25.6465 6.64646 25.6465 6.06068 25.0607V25.0607Z" fill="white"/>
</svg>
