<svg width="16" height="16" viewBox="0 0 16 16" fill="none" xmlns="http://www.w3.org/2000/svg">
<path d="M4.25 3C4.25 2.58579 4.58579 2.25 5 2.25H13C13.1017 2.25 13.1987 2.27024 13.2871 2.30691C13.3735 2.34267 13.4546 2.3953 13.5254 2.46478L13.5352 2.47459C13.6681 2.60991 13.75 2.79538 13.75 3V11C13.75 11.4142 13.4142 11.75 13 11.75C12.5858 11.75 12.25 11.4142 12.25 11V4.81066L3.53033 13.5303C3.23744 13.8232 2.76256 13.8232 2.46967 13.5303C2.17678 13.2374 2.17678 12.7626 2.46967 12.4697L11.1893 3.75H5C4.58579 3.75 4.25 3.41421 4.25 3Z" fill="#D22020" fill-opacity="0.4"/>
</svg>
