<svg width="106" height="49" viewBox="0 0 106 49" fill="none" xmlns="http://www.w3.org/2000/svg">
<path d="M98.1343 18.1963C98.8956 14.9126 100.355 10.7919 100.83 9.50415C100.989 9.24661 101.179 8.98906 101.338 8.69932C102.924 6.76773 103.368 4.51421 103.368 4.51421C103.019 3.22649 101.179 2.06753 101.179 2.06753C99.2444 4.35325 97.5634 9.2788 96.4533 13.1098C94.1062 15.9106 91.7908 18.2285 91.7908 18.2285C92.2983 14.4619 95.6921 7.21844 95.6286 5.80194C95.5652 4.38544 92.9009 2.77578 92.9009 2.77578C92.9009 2.77578 93.123 4.70737 91.7908 7.92669C91.1565 9.43976 90.2684 11.8221 89.6023 14.0756C87.509 17.7456 85.4473 19.8703 85.4473 19.8703C84.2738 18.3573 82.0535 13.1742 82.0535 13.1742L84.6227 10.4056C84.6227 10.4056 86.1451 10.5987 87.2869 10.1158C88.4288 9.63292 90.1098 6.31703 90.1098 6.31703C90.0781 5.54439 88.5239 4.19228 88.5239 4.19228C86.1768 5.89852 82.4024 10.4699 80.7214 12.5625C80.8483 12.0152 81.0069 11.4679 81.1655 10.9206C83.6711 6.8965 85.3204 3.12991 84.8447 1.48806C84.813 1.35928 84.7178 1.23051 84.6227 1.16612C84.02 0.361295 83.4808 0.329102 83.4808 0.329102C83.4808 0.329102 81.6729 1.10174 78.2157 12.4015C77.4228 11.0816 77.2008 9.69731 77.2008 8.47397C77.9937 6.86431 77.8034 5.09369 77.8034 5.09369C77.8034 5.09369 77.5497 4.03131 75.3611 3.19429C75.3611 3.19429 72.0308 8.63494 77.0422 14.6551C73.585 19.4196 70.2229 21.9307 70.2229 21.9307C68.7639 20.9971 66.8926 14.9448 66.8926 14.9448L67.9075 13.6571C67.9075 13.6571 69.3031 13.818 70.4449 13.3351C71.5868 12.8522 72.792 9.89047 72.792 9.89047C72.7603 9.11783 71.5233 7.76572 71.5233 7.76572C69.2397 9.43976 66.4485 12.981 65.1481 14.7194C65.3701 13.8824 65.6239 13.0132 65.8776 12.144C67.7489 8.98906 69.1445 5.86632 69.3665 3.32307C68.6687 2.1963 67.971 2.16411 67.971 2.16411C67.971 2.16411 66.1631 3.09771 62.7058 14.5263C61.9129 13.3351 61.4689 12.2084 61.2786 11.2748C61.6274 10.5987 61.8495 9.79389 61.8495 8.82809C61.8495 8.82809 61.0565 7.18624 59.1535 6.83212C59.1535 6.83212 57.9165 8.69932 58.7094 11.7255C58.1068 12.4337 57.1553 13.0454 55.6646 13.4317C54.8716 10.6309 52.4928 9.02125 51.573 8.89248C51.573 8.89248 49.4796 9.50415 48.1158 12.0152C48.1158 12.0152 48.3061 12.3371 48.655 12.7557C45.2929 15.9428 43.6436 20.7074 43.0093 23.0897C40.789 25.3432 38.6322 26.8241 38.6322 26.8241C39.4569 23.315 40.5036 20.3854 41.3917 18.1963C42.5652 15.3955 43.5167 13.818 43.5167 13.818C43.1678 12.5947 41.5503 11.5645 41.3282 11.4357L41.2965 11.4035C41.2648 11.4357 37.7441 14.6551 34.8896 19.6772C35.8094 16.7476 36.7926 14.0756 37.8393 12.0796C37.0781 10.9528 35.8411 10.2124 35.8411 10.2124C31.3689 19.6128 27.1188 36.2567 27.1188 36.2567C27.3725 37.8985 30.0368 40.2486 30.0368 40.2486C30.0368 40.2486 30.7663 36.2567 31.9081 31.1058C33.3354 26.4699 35.5239 20.9327 38.3785 17.1661C38.2516 17.4881 38.1248 17.8422 38.0296 18.1641C36.5389 22.478 35.6191 26.8885 35.6191 26.8885C35.9997 28.3693 37.9662 30.0112 37.9662 30.0112C37.9662 30.0112 40.5353 27.8221 42.8507 25.0534C44.0877 29.0454 46.2127 29.0776 46.2127 29.0776C52.588 24.5705 55.0936 16.9408 55.6963 14.7516C56.9015 14.4941 58.202 14.0434 59.3121 13.3351C59.7878 14.3975 60.5491 15.5565 61.6275 16.7798C59.7561 19.4196 58.3605 20.8039 58.3605 20.8039C58.3605 20.8039 56.8064 20.482 55.6646 20.9005C54.491 21.319 52.6197 24.5062 52.6197 24.5062C52.588 25.2788 54.5862 26.9528 54.5862 26.9528C54.5862 26.9528 57.9165 23.3472 61.4371 18.647C60.5491 21.4156 60.0733 23.2506 60.0733 23.2506C60.2636 24.8925 62.8327 26.0836 62.8327 26.0836C62.8327 26.0836 63.4354 21.7697 64.704 16.5545C66.4485 22.478 69.1128 24.9247 69.1128 24.9247C70.9207 24.1198 73.9339 20.9005 76.8836 17.0695C76.5664 18.1963 76.2809 19.3553 75.9321 20.643C75.9003 20.7718 75.8686 20.8361 75.8686 20.8361C76.0589 22.478 78.4695 23.7979 78.4695 23.7979C78.4695 23.7979 79.0087 19.7738 80.1822 14.7516C81.4192 19.5484 84.5275 23.0575 84.5275 23.0575C86.3037 21.48 87.6675 19.7416 88.7459 18.0353C88.7142 18.3573 88.7142 18.647 88.7459 18.9046C88.7459 18.9046 89.4437 20.6752 90.9027 21.4156C90.9027 21.4156 93.0912 19.1943 95.6286 16.2647C95.3432 17.4237 95.1846 18.1641 95.1846 18.1641C95.5335 19.645 97.4683 21.319 97.4683 21.319C97.4683 21.319 103.399 17.4881 105.334 12.2406L105.937 10.4378C103.241 14.7194 98.1343 18.1963 98.1343 18.1963ZM45.8955 26.7275C45.6101 22.3814 48.7818 17.5524 50.8752 14.8482C51.1607 15.0092 51.4778 15.1701 51.795 15.2345C51.795 15.2345 52.7148 15.2667 53.9835 15.1058C50.5897 24.1842 45.8955 26.7275 45.8955 26.7275Z" fill="#495057"/>
<path d="M52.1123 31.3634C51.8585 31.138 51.0339 30.6229 48.7819 31.0414C45.4516 31.6531 40.5037 33.1984 39.5204 33.5203C39.3935 33.5525 39.2667 33.6491 39.1715 33.7457C38.8861 34.0676 38.22 35.3553 37.7125 37.8986L37.6491 38.1883L37.9028 38.0917C38.0931 38.0273 57.4725 31.3634 75.2978 29.464C75.5198 29.6249 76.3128 29.9791 78.8184 29.9791H78.8502C81.8316 29.9791 87.6359 29.4318 87.6993 29.3996H87.7311L87.7628 29.3674C87.7945 29.3674 89.6341 28.0153 90.998 25.9227L91.1566 25.6652H90.8394C90.7125 25.6974 74.0925 25.9227 52.1123 31.3634Z" fill="#495057"/>
<path d="M25.2791 37.3191C24.8985 37.0294 24.3593 36.9006 23.6615 36.965C23.4712 36.9972 23.2175 36.9972 22.9637 37.0616C24.8668 29.4318 29.5292 11.7577 33.3353 5.15815C32.5741 3.87043 30.3539 3.00121 30.3539 3.00121V3.0334C30.2905 3.00121 30.2587 3.00121 30.2587 3.00121C23.8835 12.3694 5.51907 37.3191 5.51907 37.3191C5.51907 38.3815 6.37544 39.4439 7.07323 40.1521C4.3138 40.7316 1.80812 41.2145 0.158808 41.5042C0.158808 41.5042 0.0953727 42.1481 0.444266 42.8563C0.793158 44.0475 1.61781 45.6893 3.394 46.3976C6.37544 47.5565 6.24857 48.0716 6.24857 48.0716C6.24857 48.0716 7.96132 46.2366 7.2001 44.5948C11.3868 43.8543 16.9374 42.7598 20.9655 41.9549C20.2994 44.2084 22.4562 44.8523 22.4562 44.8523C23.0906 42.5988 26.3258 40.9247 26.3258 40.9247C26.3258 40.9247 26.6747 38.3171 25.2791 37.3191ZM18.1426 36.0958C18.2061 36.5787 18.5233 37.1581 18.9356 37.7054C15.9541 38.2849 12.1798 39.0575 8.62739 39.7658C11.1331 35.7738 19.792 21.9952 26.1672 12.3372C22.0439 23.0575 18.1426 36.0958 18.1426 36.0958Z" fill="#495057"/>
</svg>
