<svg width="100" height="45" viewBox="0 0 100 45" fill="none" xmlns="http://www.w3.org/2000/svg">
<path d="M92.3517 16.8408C93.0692 13.7458 94.4444 9.86175 94.8928 8.648C95.0423 8.40525 95.2216 8.16249 95.3711 7.8894C96.8659 6.06877 97.2844 3.9447 97.2844 3.9447C96.9556 2.73095 95.2216 1.63857 95.2216 1.63857C93.398 3.79298 91.8135 8.43559 90.7672 12.0465C88.5549 14.6864 86.3726 16.8712 86.3726 16.8712C86.8509 13.3209 90.0497 6.49358 89.9899 5.15845C89.9301 3.82332 87.4189 2.30613 87.4189 2.30613C87.4189 2.30613 87.6282 4.12676 86.3726 7.16115C85.7746 8.58731 84.9376 10.8328 84.3098 12.9568C82.3367 16.416 80.3934 18.4187 80.3934 18.4187C79.2873 16.9926 77.1946 12.1072 77.1946 12.1072L79.6161 9.49763C79.6161 9.49763 81.0511 9.67969 82.1274 9.22453C83.2036 8.76937 84.7881 5.64396 84.7881 5.64396C84.7582 4.9157 83.2933 3.64126 83.2933 3.64126C81.081 5.24949 77.5235 9.55831 75.939 11.5307C76.0586 11.0148 76.2081 10.499 76.3575 9.98312C78.7193 6.19014 80.2739 2.63991 79.8254 1.09238C79.7955 0.971003 79.7058 0.849628 79.6161 0.78894C79.0481 0.0303438 78.5399 0 78.5399 0C78.5399 0 76.8359 0.728253 73.5773 11.3789C72.8299 10.1348 72.6206 8.83006 72.6206 7.67699C73.368 6.1598 73.1886 4.49089 73.1886 4.49089C73.1886 4.49089 72.9494 3.48954 70.8867 2.7006C70.8867 2.7006 67.7476 7.82871 72.4711 13.503C69.2125 17.9939 66.0436 20.3607 66.0436 20.3607C64.6684 19.4807 62.9045 13.7761 62.9045 13.7761L63.8612 12.5624C63.8612 12.5624 65.1766 12.7141 66.2528 12.2589C67.3291 11.8038 68.4651 9.01212 68.4651 9.01212C68.4352 8.28387 67.2693 7.00943 67.2693 7.00943C65.1168 8.58731 62.486 11.9251 61.2603 13.5637C61.4696 12.7748 61.7087 11.9555 61.9479 11.1362C63.7117 8.16249 65.0271 5.21914 65.2364 2.82198C64.5787 1.75994 63.921 1.7296 63.921 1.7296C63.921 1.7296 62.2169 2.60957 58.9583 13.3816C58.2109 12.2589 57.7924 11.1969 57.613 10.3169C57.9419 9.67969 58.1512 8.92109 58.1512 8.01078C58.1512 8.01078 57.4038 6.46324 55.61 6.12946C55.61 6.12946 54.4441 7.8894 55.1915 10.7417C54.6235 11.4093 53.7266 11.9858 52.3215 12.3499C51.5741 9.71003 49.332 8.19284 48.465 8.07146C48.465 8.07146 46.4919 8.648 45.2064 11.0148C45.2064 11.0148 45.3857 11.3183 45.7146 11.7127C42.5457 14.7168 40.9911 19.2077 40.3932 21.4531C38.3005 23.5772 36.2676 24.973 36.2676 24.973C37.0449 21.6655 38.0314 18.9042 38.8685 16.8408C39.9747 14.2009 40.8715 12.7141 40.8715 12.7141C40.5427 11.561 39.018 10.59 38.8087 10.4686L38.7788 10.4383C38.7489 10.4686 35.4305 13.503 32.7399 18.2367C33.6069 15.4754 34.5337 12.9568 35.5202 11.0755C34.8027 10.0135 33.6368 9.31556 33.6368 9.31556C29.4215 18.176 25.4155 33.8637 25.4155 33.8637C25.6547 35.4113 28.1659 37.6264 28.1659 37.6264C28.1659 37.6264 28.8535 33.8637 29.9298 29.0087C31.2751 24.6392 33.3378 19.4201 36.0284 15.8698C35.9089 16.1733 35.7893 16.5071 35.6996 16.8105C34.2945 20.8766 33.4275 25.0337 33.4275 25.0337C33.7863 26.4295 35.6398 27.977 35.6398 27.977C35.6398 27.977 38.0613 25.9136 40.2437 23.3041C41.4096 27.0667 43.4126 27.0971 43.4126 27.0971C49.4216 22.8489 51.7834 15.6574 52.3514 13.594C53.4874 13.3513 54.7132 12.9265 55.7595 12.2589C56.2079 13.2603 56.9254 14.3526 57.9419 15.5057C56.178 17.9939 54.8626 19.2987 54.8626 19.2987C54.8626 19.2987 53.3978 18.9953 52.3215 19.3897C51.2154 19.7842 49.4515 22.7882 49.4515 22.7882C49.4216 23.5165 51.3051 25.0944 51.3051 25.0944C51.3051 25.0944 54.4441 21.6959 57.7625 17.2656C56.9254 19.8752 56.477 21.6048 56.477 21.6048C56.6564 23.1524 59.0779 24.2751 59.0779 24.2751C59.0779 24.2751 59.6459 20.209 60.8418 15.2933C62.486 20.8766 64.9972 23.1827 64.9972 23.1827C66.7013 22.4241 69.5414 19.3897 72.3216 15.7788C72.0227 16.8408 71.7536 17.9332 71.4248 19.147C71.3949 19.2683 71.365 19.329 71.365 19.329C71.5444 20.8766 73.8164 22.1207 73.8164 22.1207C73.8164 22.1207 74.3246 18.3277 75.4308 13.594C76.5967 18.1153 79.5265 21.4228 79.5265 21.4228C81.2006 19.9359 82.4861 18.2973 83.5026 16.6891C83.4727 16.9926 83.4727 17.2656 83.5026 17.5084C83.5026 17.5084 84.1603 19.1773 85.5355 19.8752C85.5355 19.8752 87.5983 17.7815 89.9899 15.0202C89.7209 16.1126 89.5714 16.8105 89.5714 16.8105C89.9002 18.2063 91.7239 19.7842 91.7239 19.7842C91.7239 19.7842 97.3143 16.1733 99.138 11.2272L99.706 9.52797C97.1648 13.5637 92.3517 16.8408 92.3517 16.8408ZM43.1137 24.882C42.8446 20.7855 45.8342 16.234 47.8073 13.6851C48.0764 13.8368 48.3753 13.9885 48.6743 14.0492C48.6743 14.0492 49.5412 14.0795 50.7371 13.9278C47.5382 22.4848 43.1137 24.882 43.1137 24.882Z" fill="#D22020"/>
<path d="M48.9733 29.2515C48.7341 29.0391 47.9568 28.5536 45.8343 28.9481C42.6952 29.5246 38.0315 30.9811 37.1048 31.2846C36.9852 31.3149 36.8656 31.4059 36.7759 31.497C36.5069 31.8004 35.879 33.0142 35.4007 35.4113L35.3409 35.6844L35.5801 35.5934C35.7595 35.5327 54.0256 29.2515 70.8269 27.4612C71.0362 27.613 71.7836 27.9467 74.1454 27.9467H74.1753C76.9854 27.9467 82.4563 27.4309 82.5161 27.4005H82.546L82.5759 27.3702C82.6058 27.3702 84.3397 26.0958 85.6252 24.1234L85.7747 23.8807H85.4758C85.3562 23.911 69.6909 24.1234 48.9733 29.2515Z" fill="#D22020"/>
<path d="M23.6815 34.8652C23.3228 34.5921 22.8146 34.4707 22.1569 34.5314C21.9775 34.5617 21.7383 34.5617 21.4991 34.6224C23.2929 27.4309 27.6875 10.7721 31.275 4.55165C30.5575 3.3379 28.4648 2.51861 28.4648 2.51861V2.54896C28.405 2.51861 28.3751 2.51861 28.3751 2.51861C22.3661 11.3487 5.0566 34.8652 5.0566 34.8652C5.0566 35.8665 5.86378 36.8678 6.52148 37.5354C3.92057 38.0816 1.55882 38.5368 0.00425181 38.8099C0.00425181 38.8099 -0.0555393 39.4167 0.273312 40.0843C0.602163 41.207 1.37945 42.7546 3.0536 43.4221C5.86378 44.5145 5.7442 45 5.7442 45C5.7442 45 7.35856 43.2704 6.64106 41.7229C10.5873 41.025 15.819 39.9933 19.6157 39.2347C18.9879 41.3587 21.0208 41.9656 21.0208 41.9656C21.6187 39.8415 24.6681 38.2637 24.6681 38.2637C24.6681 38.2637 24.9969 35.8058 23.6815 34.8652ZM16.955 33.7121C17.0148 34.1672 17.3138 34.7134 17.7024 35.2293C14.8922 35.7755 11.3347 36.5037 7.98636 37.1713C10.3481 33.4086 18.5096 20.4215 24.5186 11.3183C20.6322 21.4228 16.955 33.7121 16.955 33.7121Z" fill="#D22020"/>
</svg>
